<?xml version="1.0" encoding="utf-8"?>
<!-- Generator: Adobe Illustrator 23.0.3, SVG Export Plug-In . SVG Version: 6.00 Build 0)  -->
<svg version="1.1" id="Layer_1" xmlns="http://www.w3.org/2000/svg" xmlns:xlink="http://www.w3.org/1999/xlink" x="0px" y="0px"
	 viewBox="0 0 1200 1200" enable-background="new 0 0 1200 1200" xml:space="preserve">
<g>
	<path fill="#541C00" d="M86.36,360.148c-5.012-15.799-9.699-30.36-14.249-44.964c-7.082-22.731-9.597-46.133-7.967-69.737
		c0.747-10.823,2.725-22.204,7.107-32.007c11.381-25.461,24.507-50.018,49.571-65.443c17.591-10.825,36.953-16.647,57.096-18.106
		c29.882-2.165,54.399,10.257,72.942,33.346c8.959,11.156,16.011,23.845,24.584,36.837c5.104,0.132,11.241,0.412,17.379,0.423
		c13.926,0.025,26.538,4.091,37.46,12.66c3.989,3.13,7.435,4.49,12.886,4.003c31.288-2.795,57.759,8.688,74.503,34.513
		c23.182,35.754,51.504,66.849,80.014,97.979c41.382,45.184,90.615,79.982,145.292,106.99
		c66.223,32.712,135.646,55.795,208.929,66.76c12.757,1.909,25.172,6,37.844,8.604c18.772,3.858,37.598,7.479,56.462,10.855
		c28.708,5.137,54.412,18.295,80.771,29.735c41.578,32.425,68.578,72.216,64.499,127.698c-0.313,4.249-0.701,8.493-1.164,14.06
		c1.631,0.748,3.453,1.419,5.116,2.368c43.639,24.929,64.085,71.782,50.312,119.93c-18.595,65.008-60.144,105.786-128.638,115.747
		c-7.671,1.116-13.24,3.566-17.828,10.028c-10.27,14.468-20.891,28.715-31.95,42.59c-19.782,24.821-45.974,40.227-75.852,49.737
		c-74.026,23.562-147.794,18.636-221.195-2.836c-59.199-17.317-115.884-40.7-168.894-72.505
		c-36.63-21.978-73.239-43.993-109.723-66.211c-37.547-22.866-70.346-51.835-102.095-81.857
		c-40.801-38.581-81.903-77.007-116.639-121.411c-42.139-53.866-80.141-110.393-103.59-175.191
		c-11.939-32.99-20.112-67.015-19.288-102.721C50.74,402.448,59.407,377.365,86.36,360.148z M864.681,990.975
		c-0.807-2.324-1.463-3.261-1.365-4.111c0.271-2.354,0.898-4.664,1.312-7.003c5.893-33.344,8.28-66.591-0.771-99.902
		c-3.624-13.337-9.288-25.145-19.405-34.647c-28.188-26.473-60.011-46.461-98.685-53.228c-23.132-4.047-46.678-5.844-69.705-10.35
		c-93.725-18.338-182.527-49.523-261.011-105.39c-41.207-29.332-78.293-63.335-108.925-104.035
		c-34.051-45.243-68.021-90.574-103.284-134.865c-13.037-16.374-28.659-31.115-44.906-44.393
		c-17.708-14.472-39.626-15.807-60.093-7.303c-19.045,7.913-23.413,26.575-24.785,45.557c-0.103,1.435-0.038,2.882-0.143,4.317
		c-2.185,29.937,4.993,58.355,15.677,85.752c25.215,64.657,63.58,121.609,108.234,174.006
		c26.705,31.335,56.888,59.769,86.219,88.787c38.266,37.856,78.023,74.059,123.6,103.216c17.792,11.382,35.445,22.998,53.5,33.95
		c57.502,34.881,115.523,68.627,179.916,89.91c74.475,24.615,149.076,37.741,227.578,18.019
		c47.084-11.829,79.395-41.506,110.613-75.054c-29.672-6.313-58.526-12.452-88.183-18.761c-0.229,0.861-0.894,3.069-1.396,5.314
		c-2.722,12.172-5.079,24.439-8.22,36.501C878.513,984.711,875.469,991.938,864.681,990.975z M330.692,428.901
		c3.753-21.354,14.553-38.212,30.702-52.272c8.226-7.162,10.754-18.064,11.705-28.748c1.045-11.746-3.801-20.439-14.894-25.342
		c-12.614-5.575-25.627-8.107-39.278-5.072c-11.709,2.603-23.299,5.742-35.014,8.319c-17.235,3.792-32.354-2.179-46.073-11.685
		c-10.11-7.005-12.384-20.638-6.515-30.929c4.146-7.27,8.701-8.661,16.87-5.15c-6.406,13.315-6.406,13.315-0.383,19.257
		c12.269-6.258,24.212-12.132,35.941-18.409c8.011-4.288,16.365-8.34,23.356-13.994c5.366-4.34,10.022-10.478,12.889-16.775
		c4.417-9.699,0.91-18.819-9.004-22.398c-8.341-3.011-17.735-4.84-26.552-4.481c-28.596,1.165-54.298,11.284-77.095,28.539
		c-16.573,12.545-25.384,29.619-28.453,49.968c-1.131,7.5,0.05,14.378,4.453,20.547c14.237,19.947,32.998,32.392,58.1,31.781
		c18.897-0.46,37.264,0.8,55.887,8.894c1.324-5.34,0.041-12.851,7.513-12.033c6.548,0.717,9.223,6.268,10.471,12.253
		c2.232,10.708-0.59,20.012-8.277,27.71c-4.745,4.752-10.673,8.577-14.481,13.945c-4.571,6.443-10.25,13.966-10.554,21.227
		c-1.018,24.269,6.571,43.408,35.617,52.172c13.082,3.947,27.365,3.977,41.127,5.581c7.599,0.886,15.325,0.873,22.857,2.102
		c18.49,3.018,26.091-0.896,34.913-18.225c1.107-2.174,4.087-4.697,6.201-4.7c2.261-0.002,5.425,2.291,6.625,4.454
		c4.415,7.956,3.282,16.071-2.38,22.834c-3.94,4.708-9.224,8.291-13.911,12.373c-9.026,7.861-18.428,15.333-27.01,23.652
		c-23.08,22.374-8.124,67.453,16.729,76.851c15.57,5.888,30.776,10.362,47.605,6.741c20.149-4.336,40.364-8.435,60.672-11.932
		c9.887-1.703,20.039-1.979,30.091-2.555c4.61-0.264,9.173-0.487,9.393-6.268c0.22-5.808-4.711-6.288-8.979-7.18
		c-2.967-0.62-5.885-1.483-9.207-2.336c2.181-9.086,8.035-10.457,14.563-10.079c14.413,0.834,23.919,12.854,19.605,27.243
		c-2.95,9.838-8.398,19.413-14.639,27.659c-8.645,11.423-14.281,23.774-17.433,37.505c-5.639,24.566,8.998,44.302,34.074,45.854
		c7.658,0.474,15.332,0.816,23.004,0.931c26.704,0.402,52.622-2.744,76.714-15.672c6.675-3.582,14.199-5.947,21.61-7.7
		c9.253-2.189,18.792-3.168,27.613-4.575c5.235-8.385,5.374-16.069,2.27-24.26c-0.665-1.756,0.237-5.589,1.558-6.278
		c2.146-1.12,5.729-1.404,7.834-0.331c6.66,3.395,8.8,9.749,8.956,16.861c0.281,12.85-3.096,24.474-10.376,35.277
		c-9.848,14.617-12.823,30.883-8.782,48.142c2.267,9.684,7.772,15.999,18.355,17.615c8.986,1.372,18.204,2.865,26.588,6.162
		c12.79,5.03,24.647,2.047,36.411-2.1c7.17-2.527,14.023-6.302,20.523-10.318c20.795-12.845,41.207-26.314,62.072-39.042
		c11.854-7.231,24.003-14.128,36.57-19.995c11.883-5.547,24.538-8.525,35.782-2.226c4.413-3.341,8.11-8.357,11.141-7.983
		c6.781,0.839,7.679,7.529,8.004,13.497c0.416,7.653-1.978,14.384-7.792,19.343c-8.38,7.147-17.007,14.024-25.764,20.708
		c-9.805,7.486-12.97,17.465-11.766,29.225c0.956,9.341,5.88,14.512,15.343,16.297c14.685,2.769,26.99-2.873,36.182-13.305
		c9.459-10.733,18.115-22.556,25.015-35.064c8.233-14.926,10.037-31.719,9.07-48.879c-0.88-15.606-9.463-24.337-23.104-29.754
		c-22.796-9.053-42.381-2.151-60.212,12.227c-31.199,25.158-66.687,41.575-105.263,51.233c-10.962,2.745-22.911,4.023-34.097,2.894
		c-24.001-2.421-34.515-25.282-21.664-45.772c4.276-6.818,10.729-12.234,15.763-18.624c5.605-7.116,11.937-14.03,15.807-22.065
		c7.843-16.284,2.239-27.584-15.155-33.272c-3.617-1.183-7.453-1.995-11.242-2.298c-19.09-1.525-37.052,2.381-54.471,10.439
		c-23.057,10.667-46.392,20.758-69.828,30.573c-13.967,5.849-28.812,7.47-43.83,5.4c-9.993-1.377-18.413-5.81-22.349-15.821
		c-1.876-4.772-1.991-9.253,4.317-11.659c2.63-1.003,5.716-3.372,6.644-5.85c5.054-13.5,14.304-23.727,24.471-33.385
		c3.475-3.301,7.261-6.425,10.08-10.239c12.294-16.636,7.293-32.702-11.935-39.383c-20.372-7.078-40.743-5.647-60.815,0.763
		c-21.932,7.004-43.583,14.881-65.426,22.169c-21.557,7.192-43.309,8.707-64.837,0.142c-13.233-5.264-19.581-15.528-17.481-26.493
		c2.535-13.236,15.607-26.33,27.495-27.376c0.581-0.051,1.278,1.205,2.544,2.48c-4.104,7.23-8.35,14.711-12.763,22.486
		c12.367-8.16,23.48-16.193,35.265-23.077c12.291-7.181,22.759-16.123,30.449-27.969c8.73-13.447,5.353-26.292-8.473-33.925
		c-14.145-7.809-29.118-12.817-45.504-10.246c-11.793,1.85-23.533,4.257-35.121,7.128c-10.699,2.65-21.068,6.62-31.752,9.346
		c-18.347,4.682-35.227-0.027-50.894-9.629c-5.638-3.456-10.968-7.829-8.196-17.348C318.783,426.42,324.136,427.535,330.692,428.901
		z M654.628,574.009c16.616,6.164,32.384,11.756,47.932,17.908c6.161,2.438,11.354,2.335,17.813,0.15
		c20.194-6.833,41.01-9.875,62.366-5.89c27.434,5.12,41.89,21.535,43.14,48.979c0.038,0.843,0.857,1.651,1.657,3.1
		c22.952,8.498,46.911,14.953,71.615,19.08c8.63,1.442,15.062,0.627,22.353-4.874c25.875-19.527,53.83-20.731,82.674-6.717
		c16.557,8.045,27.835,20.2,29.852,39.378c0.294,2.794,1.227,5.521,1.874,8.323c13.49,4.055,26.517,7.971,39.398,11.843
		c0.851-1.825,1.597-2.677,1.584-3.518c-0.092-5.756-0.171-11.522-0.57-17.263c-2.971-42.721-27.227-72.604-59.161-97.828
		c-25.801-10.196-50.71-22.826-78.757-26.635c-18.02-2.448-35.903-5.97-53.788-9.329c-13.65-2.564-27.106-6.296-40.822-8.35
		c-53.788-8.054-106.048-21.123-156.81-41.225c-64.945-25.717-125.574-58.842-176.849-106.094
		c-41.193-37.961-80.148-78.716-108.749-127.87c-12.496-21.476-32.883-31.005-54.972-36.154
		c-3.733,12.438-5.163,24.859-11.025,34.617c-6.076,10.115-16.448,17.649-24.867,26.236c3.699,6.404,8.833,3.182,13.203,2.848
		c17.837-1.36,34.362,2.874,49.563,11.905c15.304,9.092,22.68,23,22.513,40.777c-0.149,15.811-4.414,30.362-14.409,42.827
		c-2.047,2.554-5.22,4.205-7.874,6.273c4.009,4.447,5.272,6.444,6.648,8.359c8.42,11.72,17.716,17.354,33.825,12.989
		c28.189-7.64,56.058-5.259,81.708,11.083c20.845,13.28,27.873,36.438,16.976,58.767c-1.821,3.732-3.955,7.31-6.146,11.328
		c18.624,11.674,36.09,21.188,59.347,14.631c22.837-6.439,45.685-1.755,67.19,8.449c15.001,7.119,22.574,18.803,22.29,35.444
		C655.269,562.307,654.942,567.056,654.628,574.009z M1037.077,709.122c-1.423,1.422-1.95,1.702-2.056,2.096
		c-0.62,2.287-1.391,4.573-1.657,6.91c-3.181,27.896-17.588,50.566-34.437,71.716c-21.702,27.242-59.701,27.201-81.071,0.34
		c-2.804-3.524-4.487-8.64-4.958-13.198c-1.99-19.251,2.547-36.165,19.01-48.397c6.03-4.48,11.612-9.563,19.45-16.076
		c-8.921-2.074-14.874-1.185-20.191,2.117c-14.223,8.831-28.48,17.648-42.257,27.146c-24.133,16.639-49.328,31.266-76.313,42.774
		c-1.877,0.8-3.456,2.297-3.816,2.543c11.224,8.917,22.094,17.557,32.971,26.191c14.357,11.397,28.555,23.245,35.877,40.502
		c3.868,9.117,9.893,13.711,18.834,15.545c13.613,2.792,27.302,5.213,40.904,8.051c15.157,3.162,28.352,9.913,39.455,21.053
		c-1.719,1.646-2.331,2.764-3.018,2.813c-21.919,1.546-43.794,5.297-65.793-0.014c-6.073-1.466-12.843-4.741-18.706,0.24
		c-1.398,10.079,5.547,12.145,12.206,13.304c29.724,5.172,59.358,11.74,89.327,14.419c42.375,3.787,78.326-11.343,105.177-45.053
		c14.152-17.767,23.117-38.291,30.944-59.713c10.228-27.991-8.874-81.607-39.633-93.436c-11.596-4.459-22.372-11.008-33.722-16.166
		C1048.1,712.327,1042.135,710.835,1037.077,709.122z M294.946,373.475c-0.398-1.251-0.795-2.503-1.193-3.754
		c-8.519-0.413-17.051-1.354-25.553-1.127c-16.302,0.436-32.619,1.906-48.568-2.939c-27.013-8.204-50.401-22.837-58.242-50.681
		c-8.41-29.866,4.44-55.996,26.925-75.96c11.278-10.013,25.203-17.31,38.624-24.553c9.153-4.94,19.504-7.657,30.638-11.867
		c-10.789-14.814-20.172-29.748-34.796-40.433c-22.483-16.425-46.806-15.234-71.423-6.809c-20.991,7.184-39.21,18.138-46.906,40.981
		c-1.361,4.039-4.469,7.484-5.87,11.516c-3.6,10.365-8.469,20.714-9.622,31.415c-2.419,22.458-1.871,45.079,4.439,67.123
		c0.781,2.731,1.156,6.219,3.029,7.888c8.882,7.921,9.749,19.556,14.445,29.382c1.589,3.325,3.153,6.662,4.89,10.335
		c31.093-2.764,56.419,8.465,77.208,29.695c16.407,16.754,32.79,33.753,47.213,52.185c33.401,42.686,65.446,86.43,98.41,129.462
		c8.068,10.532,17.555,19.976,26.39,29.92c0.789-0.477,1.579-0.954,2.368-1.431c-8.935-15.102-14.579-31.215-14.833-48.644
		c-0.267-18.316,10.444-31.943,22.711-46.001c-11.878,0.163-21.903,1.149-31.74,0.2c-9.956-0.961-19.798-3.548-29.563-5.938
		c-16.512-4.043-29.609-13.675-39.851-26.87c-21.361-27.516-17.539-61.026,9.035-83.25
		C287.049,380.028,291.001,376.756,294.946,373.475z M385.511,611.8c22.496,29.842,107.776,83.751,133.733,89.311
		c-2.241-10.009-6.293-20.576-6.505-31.22c-0.204-10.24,2.476-20.937,5.889-30.738c3.492-10.028,9.412-19.21,14.867-29.938
		c-19.792,4.626-38.51,8.468-56.927,13.428c-28.878,7.778-56.768,7.558-83.476-7.509C391.198,614.065,389.097,613.362,385.511,611.8
		z M892.974,673.504c-25.585-6.514-49.524-12.609-72.56-18.474c-9.731,10.9-18.9,21.189-28.09,31.459
		c-5.415,6.052-12.644,12.185-7.384,21.088c4.73,8.006,13.62,5.908,20.901,4.349C836.945,705.269,865.73,693.132,892.974,673.504z
		 M705.583,694.771c-8.967,4.232-17.006,7.23-24.232,11.58c-24.981,15.037-52.014,21.78-80.992,21.475
		c-2.877-0.03-5.755,0.069-8.633,0.119c-2.272,0.04-4.543,0.098-6.815,0.148c37.629,13.52,75.28,25.623,115.14,31.302
		c-0.862-11.947-2.821-22.025-1.96-31.857C698.991,717.264,702.602,707.228,705.583,694.771z M649.444,587.578
		c-27.407,23.069-34.957,31.866-38.893,46.099c28.573-1.893,50.878-18.709,79.4-28.228
		C674.209,598.504,661.74,593.003,649.444,587.578z M497.711,510.975c-17.281,10.362-32.194,19.303-47.107,28.245
		c0.365,0.957,0.729,1.913,1.094,2.87c22.822,0.422,43.173-9.598,64.161-15.368C508.984,520.757,502.949,515.52,497.711,510.975z
		 M377.665,429.022c-6.328-7.268-10.528-12.092-16.063-18.448c-4.181,8.188-7.468,14.626-11.679,22.872
		C359.887,431.857,367.186,430.693,377.665,429.022z"/>
	<path fill="#F58A43" d="M817.481,987.103c-12.166-13.609-22.77-30.431-33.18-47.637c0.553,1.525,1.106,3.051,1.662,4.572
		c2.677,7.329,2.53,14.799-3.632,22.599c-1.257-3.912-2.452-7.846-3.78-11.733c-11.883-34.768-30.367-64.985-61.086-86.296
		c-8.202-5.69-17.568-9.686-26.31-14.617c-4.014-2.264-7.994-4.59-11.999-6.87c-1.584,0.068-3.163,0.124-4.796,0.292
		c-38.962,2.873-75.138-0.402-108.982-8.584c4.211,6.153,8.174,12.486,12.384,18.644c30.052,43.957,60.18,87.862,90.202,131.841
		c3.899,5.712,7.331,11.743,9.871,18.508c-8.878-0.88-13.931-6.612-18.359-12.518c-21.868-29.167-44.137-58.073-64.896-88.019
		c-13.908-20.062-25.651-41.637-38.084-62.699c-1.701-2.881-2.956-6.026-4.17-9.195C454.4,807.574,376.32,738.296,307.133,657.79
		c-2.92-2.322-5.656-4.826-8.221-7.509c-26.502-27.722-54.773-54.17-75.706-86.574c-23.679-36.655-52.721-68.277-84.865-97.381
		c-3.073-2.782-5.725-6.03-11.049-11.699c6.513,0.471,9.788-0.036,12.372,1.069c3.909,1.672,7.634,4.11,10.923,6.842
		c5.031,4.181,9.977,8.437,14.878,12.732c-0.207-0.269-0.414-0.54-0.62-0.809c-19.99-25.89-54.106-56.196-89.085-61.198
		c-1.479,5.743-2.255,11.872-2.701,18.041c-0.104,1.435-0.039,2.882-0.143,4.317c-2.185,29.936,4.993,58.355,15.677,85.753
		c25.215,64.657,63.581,121.609,108.234,174.005c26.705,31.335,56.888,59.769,86.219,88.787
		c38.266,37.856,78.023,74.06,123.6,103.216c17.792,11.382,35.446,22.998,53.501,33.95c57.502,34.881,115.523,68.627,179.916,89.91
		c74.474,24.615,149.076,37.741,227.578,18.019c6.258-1.572,12.24-3.481,18.009-5.651
		C859.961,1020.619,836.518,1010.503,817.481,987.103z M178.958,606.389c-15.974-42.715-18.526-53.974-13.711-64.255
		c2.277,2.864,5.074,4.974,5.945,7.699c8.816,27.561,17.318,55.222,26.251,83.961C187.681,629.405,187.396,628.955,178.958,606.389z
		 M222.77,650.926c-7.666-3.723-9.244-10.851-11.836-17.209c-13.932-34.177-21.229-65.549-18.136-81.204
		C199.531,561.871,222.327,637.525,222.77,650.926z M565.95,927.733c-12.998-18.83-28.132-36.998-31.34-64.813
		c5.399,3.607,8.457,4.784,10.201,6.996c3.546,4.5,6.366,9.57,9.517,14.385c12.865,19.657,25.751,39.3,38.608,58.961
		c3.365,5.145,6.655,10.338,11.561,17.967C589.322,958.324,584.567,954.703,565.95,927.733z M719.492,996.561
		c-4.327-3.391-9.648-6.041-12.825-10.293c-24.977-33.428-49.597-67.123-74.153-100.863c-2.496-3.43-4.447-7.551-5.456-11.647
		c-0.538-2.178,0.889-5.586,2.586-7.28c0.961-0.959,4.824-0.299,6.39,0.912c2.978,2.303,5.571,5.295,7.757,8.401
		c23.481,33.363,46.945,66.737,70.153,100.289c3.679,5.319,6.067,11.53,9.052,17.328C721.828,994.46,720.661,995.51,719.492,996.561
		z"/>
	<path fill="#F7D9BC" d="M890.07,935.445c-0.228,0.861-0.894,3.069-1.396,5.314c-2.722,12.173-5.079,24.439-8.22,36.502
		c-1.941,7.45-4.985,14.677-15.773,13.714c-0.808-2.324-1.463-3.261-1.365-4.111c0.272-2.354,0.898-4.664,1.312-7.004
		c5.893-33.344,8.28-66.591-0.771-99.902c-3.623-13.337-9.287-25.145-19.405-34.647c-28.188-26.473-60.011-46.461-98.686-53.228
		c-23.131-4.047-46.677-5.844-69.705-10.35c-93.725-18.338-182.527-49.523-261.011-105.39
		c-41.206-29.332-78.293-63.335-108.925-104.035c-34.051-45.244-68.021-90.575-103.284-134.865
		c-13.037-16.374-28.659-31.115-44.906-44.393c-17.708-14.472-39.626-15.807-60.093-7.303c-12.855,5.341-19.01,15.587-22.084,27.516
		c34.979,5.001,69.095,35.307,89.085,61.198c0.207,0.268,0.414,0.54,0.62,0.809c23.919,20.96,46.198,43.437,65.512,69.262
		c25.246,33.757,53.181,65.521,80.379,97.786c5.492,6.515,12.923,11.399,19.486,17.004c4.419,3.774,4.439,3.751,7.553,13.854
		c-12.399-3.307-22.647-8.537-31.263-15.386C376.32,738.296,454.4,807.574,552.325,835.391c-0.762-1.988-1.511-3.984-2.335-5.935
		c1.416-0.986,2.831-1.972,4.247-2.958c2.8,2.729,6.058,5.129,8.308,8.254c0.966,1.343,1.898,2.711,2.832,4.076
		c33.845,8.182,70.021,11.457,108.982,8.584c1.632-0.168,3.212-0.224,4.796-0.292c-9.708-5.526-19.42-11.043-29.081-16.649
		c-1.455-0.845-2.478-2.435-4.468-4.458c9.65-5.925,18.099-2.886,26.766-0.731c48.262,12,79.746,43.504,100.88,86.824
		c4.302,8.817,7.688,18.099,11.048,27.359c10.41,17.206,21.014,34.028,33.18,47.637c19.037,23.401,42.48,33.516,68.168,36.507
		c37.629-14.157,65.536-40.315,92.604-69.404C948.582,947.894,919.727,941.755,890.07,935.445z"/>
	<path fill="#FEC337" d="M330.692,428.901c-6.556-1.366-11.908-2.482-17.615-3.671c-2.773,9.519,2.558,13.893,8.196,17.348
		c15.667,9.601,32.548,14.311,50.894,9.629c10.684-2.726,21.053-6.696,31.752-9.346c11.588-2.871,23.328-5.278,35.121-7.128
		c16.386-2.571,31.359,2.437,45.504,10.246c13.826,7.633,17.203,20.478,8.473,33.925c-7.69,11.846-18.158,20.789-30.449,27.969
		c-11.784,6.884-22.898,14.916-35.265,23.077c4.413-7.775,8.659-15.256,12.763-22.486c-1.266-1.275-1.962-2.531-2.544-2.48
		c-11.888,1.046-24.96,14.14-27.495,27.376c-2.1,10.966,4.248,21.229,17.481,26.493c21.528,8.565,43.28,7.05,64.837-0.142
		c21.843-7.288,43.494-15.165,65.426-22.169c20.072-6.41,40.443-7.841,60.815-0.763c19.228,6.681,24.229,22.747,11.935,39.383
		c-2.819,3.814-6.605,6.938-10.08,10.239c-10.167,9.658-19.417,19.885-24.471,33.385c-0.928,2.478-4.014,4.847-6.644,5.85
		c-6.307,2.406-6.193,6.888-4.317,11.659c3.936,10.011,12.356,14.444,22.349,15.821c15.018,2.07,29.864,0.449,43.83-5.4
		c23.435-9.814,46.771-19.906,69.828-30.573c17.419-8.058,35.381-11.964,54.471-10.439c3.789,0.303,7.625,1.115,11.242,2.298
		c17.394,5.688,22.999,16.988,15.155,33.272c-3.87,8.035-10.202,14.949-15.807,22.065c-5.034,6.39-11.487,11.805-15.763,18.624
		c-12.85,20.49-2.337,43.351,21.664,45.772c11.185,1.129,23.134-0.149,34.097-2.894c38.576-9.659,74.064-26.076,105.263-51.233
		c17.831-14.378,37.416-21.28,60.212-12.227c13.641,5.417,22.224,14.148,23.104,29.754c0.967,17.16-0.837,33.953-9.07,48.879
		c-6.9,12.508-15.555,24.33-25.015,35.064c-9.192,10.431-21.497,16.074-36.182,13.305c-9.462-1.784-14.386-6.956-15.343-16.297
		c-1.204-11.76,1.96-21.74,11.766-29.225c8.756-6.685,17.383-13.561,25.764-20.708c5.814-4.959,8.208-11.691,7.792-19.343
		c-0.325-5.968-1.223-12.658-8.004-13.497c-3.03-0.375-6.728,4.642-11.141,7.983c-11.244-6.298-23.899-3.321-35.782,2.226
		c-12.567,5.867-24.716,12.764-36.57,19.995c-20.865,12.728-41.277,26.196-62.072,39.042c-6.501,4.015-13.353,7.79-20.523,10.318
		c-11.763,4.147-23.621,7.13-36.411,2.1c-8.385-3.297-17.602-4.79-26.588-6.162c-10.583-1.616-16.088-7.931-18.355-17.615
		c-4.041-17.259-1.066-33.525,8.782-48.142c7.28-10.803,10.657-22.427,10.376-35.277c-0.156-7.112-2.296-13.466-8.956-16.861
		c-2.105-1.073-5.688-0.789-7.834,0.331c-1.321,0.689-2.224,4.522-1.558,6.278c3.104,8.191,2.965,15.875-2.27,24.26
		c-8.822,1.407-18.361,2.386-27.613,4.575c-7.411,1.753-14.935,4.118-21.61,7.7c-24.092,12.928-50.011,16.074-76.714,15.672
		c-7.672-0.116-15.345-0.457-23.004-0.931c-25.076-1.552-39.714-21.288-34.074-45.854c3.152-13.731,8.788-26.082,17.433-37.505
		c6.241-8.247,11.689-17.822,14.639-27.659c4.314-14.388-5.193-26.409-19.605-27.243c-6.528-0.378-12.382,0.993-14.563,10.079
		c3.322,0.853,6.239,1.716,9.207,2.336c4.268,0.892,9.199,1.372,8.979,7.18c-0.219,5.781-4.783,6.003-9.393,6.268
		c-10.052,0.577-20.204,0.852-30.091,2.555c-20.308,3.497-40.523,7.596-60.672,11.932c-16.829,3.622-32.035-0.853-47.605-6.741
		c-24.853-9.398-39.808-54.477-16.729-76.851c8.582-8.319,17.984-15.791,27.01-23.652c4.687-4.082,9.971-7.665,13.911-12.373
		c5.662-6.764,6.794-14.878,2.38-22.834c-1.2-2.163-4.365-4.456-6.625-4.454c-2.114,0.002-5.095,2.526-6.201,4.7
		c-8.823,17.329-16.424,21.243-34.913,18.225c-7.532-1.23-15.258-1.217-22.857-2.102c-13.762-1.604-28.045-1.634-41.127-5.581
		c-29.046-8.764-36.634-27.903-35.617-52.172c0.304-7.261,5.984-14.785,10.554-21.227c3.809-5.368,9.736-9.193,14.481-13.945
		c7.687-7.698,10.51-17.002,8.277-27.71c-1.248-5.985-3.923-11.536-10.471-12.253c-7.472-0.818-6.189,6.693-7.513,12.033
		c-18.622-8.094-36.99-9.354-55.887-8.894c-25.102,0.611-43.863-11.834-58.1-31.781c-4.403-6.169-5.584-13.046-4.453-20.547
		c3.068-20.349,11.879-37.424,28.453-49.968c22.797-17.255,48.499-27.374,77.095-28.539c8.817-0.359,18.211,1.47,26.552,4.481
		c9.914,3.579,13.42,12.7,9.004,22.398c-2.867,6.297-7.523,12.436-12.889,16.775c-6.991,5.654-15.346,9.706-23.356,13.994
		c-11.729,6.277-23.672,12.151-35.941,18.409c-6.023-5.942-6.023-5.942,0.383-19.257c-8.169-3.511-12.724-2.121-16.87,5.15
		c-5.869,10.291-3.595,23.924,6.515,30.929c13.718,9.506,28.837,15.477,46.073,11.685c11.714-2.577,23.305-5.716,35.014-8.319
		c13.651-3.035,26.665-0.503,39.278,5.072c11.093,4.903,15.939,13.596,14.894,25.342c-0.951,10.684-3.479,21.586-11.705,28.748
		C345.245,390.689,334.444,407.548,330.692,428.901z"/>
	<path fill="#F7D9BC" d="M339.785,255.692c-1.177,3.517-2.556,6.875-4.401,9.946c-6.076,10.114-16.449,17.649-24.867,26.236
		c3.699,6.404,8.832,3.182,13.204,2.848c17.836-1.36,34.361,2.874,49.562,11.905c1.547,0.919,2.957,1.922,4.343,2.939
		c-10.683-14.919-20.73-30.715-29.984-47.607C346.003,259.674,343.218,257.573,339.785,255.692z"/>
	<path fill="#F7D9BC" d="M983.779,618.886c-69.38-43.107-151.95-38.273-231.577-67.245
		c-135.26-52.452-268.065-108.29-359.156-221.67c1.867,5.302,2.809,11.111,2.749,17.435c-0.149,15.811-4.414,30.362-14.409,42.827
		c-2.048,2.554-5.22,4.205-7.874,6.273c4.009,4.447,5.271,6.444,6.648,8.359c8.42,11.72,17.716,17.354,33.825,12.989
		c28.188-7.64,56.058-5.259,81.708,11.082c20.845,13.281,27.874,36.438,16.976,58.767c-1.821,3.732-3.955,7.31-6.146,11.328
		c18.624,11.674,36.09,21.189,59.348,14.631c22.837-6.439,45.685-1.755,67.19,8.449c15.002,7.119,22.574,18.803,22.289,35.444
		c-0.082,4.753-0.408,9.502-0.722,16.455c16.616,6.163,32.384,11.756,47.932,17.907c6.161,2.438,11.354,2.335,17.813,0.15
		c20.194-6.833,41.011-9.875,62.366-5.89c27.434,5.12,41.89,21.535,43.139,48.979c0.039,0.843,0.857,1.651,1.657,3.101
		c22.952,8.499,46.911,14.953,71.615,19.08c8.63,1.442,15.063,0.627,22.353-4.875c25.876-19.527,53.83-20.731,82.675-6.717
		c16.556,8.045,27.835,20.2,29.852,39.378c0.294,2.794,1.226,5.521,1.874,8.323c2.324,0.699,4.568,1.373,6.867,2.064
		C1032.401,664.893,1013.841,637.936,983.779,618.886z"/>
	<path fill="#F58A43" d="M1017.155,586.68c-25.8-10.196-50.709-22.826-78.757-26.635c-18.02-2.448-35.903-5.97-53.787-9.329
		c-13.651-2.564-27.106-6.297-40.822-8.35c-53.788-8.054-106.048-21.123-156.81-41.225
		c-64.944-25.717-125.573-58.842-176.849-106.094c-41.193-37.962-80.148-78.716-108.748-127.87
		c-12.496-21.476-32.884-31.005-54.972-36.154c-2.559,8.523-4.062,17.015-6.624,24.671c3.433,1.881,6.218,3.982,7.856,6.268
		c9.254,16.891,19.301,32.688,29.984,47.607c7.443,5.462,12.571,12.308,15.421,20.403c91.092,113.38,223.897,169.218,359.156,221.67
		c79.627,28.972,162.197,24.138,231.577,67.245c30.062,19.051,48.621,46.007,58.991,76.625c11.042,3.319,21.87,6.574,32.531,9.779
		c0.851-1.824,1.598-2.677,1.584-3.518c-0.091-5.757-0.171-11.522-0.57-17.263C1073.346,641.787,1049.088,611.905,1017.155,586.68z"
		/>
	<path fill="#E15830" d="M1037.077,709.122c5.058,1.712,11.023,3.204,16.529,5.706c11.349,5.158,22.126,11.707,33.722,16.166
		c30.759,11.829,49.861,65.445,39.633,93.436c-7.827,21.422-16.792,41.946-30.944,59.713c-26.851,33.71-62.802,48.84-105.177,45.053
		c-29.969-2.678-59.603-9.246-89.327-14.419c-6.659-1.159-13.604-3.225-12.206-13.304c5.863-4.981,12.633-1.706,18.706-0.24
		c21.999,5.311,43.874,1.56,65.793,0.014c0.687-0.048,1.299-1.167,3.018-2.813c-11.103-11.141-24.298-17.892-39.455-21.053
		c-13.603-2.838-27.292-5.259-40.904-8.051c-8.941-1.834-14.966-6.428-18.834-15.545c-7.323-17.258-21.52-29.105-35.877-40.502
		c-10.877-8.634-21.747-17.274-32.971-26.191c0.36-0.246,1.94-1.742,3.816-2.543c26.985-11.508,52.18-26.134,76.313-42.774
		c13.777-9.499,28.034-18.315,42.257-27.146c5.317-3.302,11.27-4.191,20.191-2.117c-7.839,6.513-13.421,11.596-19.45,16.076
		c-16.463,12.232-21,29.146-19.01,48.397c0.471,4.558,2.154,9.674,4.958,13.198c21.369,26.862,59.368,26.902,81.071-0.34
		c16.849-21.151,31.257-43.82,34.437-71.716c0.267-2.338,1.038-4.623,1.657-6.91
		C1035.127,710.825,1035.654,710.545,1037.077,709.122z M1077.224,750.958c-0.918,0.954-1.835,1.908-2.753,2.861
		c0.219,2.263,0.078,4.635,0.718,6.772c3.408,11.378,7.006,22.7,10.557,34.035c0.426,1.36,0.577,3.182,1.53,3.928
		c2.399,1.877,5.462,4.821,7.737,4.415c2.408-0.43,4.756-3.965,6.096-6.659c0.939-1.889,0.84-4.926,0.006-6.959
		c-4.472-10.894-8.902-21.851-14.311-32.286C1085.296,754.156,1080.507,752.947,1077.224,750.958z M1040.513,783.034
		c7.63,11.956,14.054,21.832,20.265,31.84c2.694,4.341,5.706,8.554,11.309,5.999c5.484-2.501,5.186-8.006,3.182-12.514
		c-5.422-12.203-13.883-21.715-26.73-26.501C1047.088,781.318,1045.066,782.308,1040.513,783.034z M1015.923,839.853
		c26.405,15.771,39.265,16.791,48.686,1.052C1047.835,837.288,1031.713,842.514,1015.923,839.853z M1055.452,895.837
		c13.897,4.01,23.997-0.899,25.492-10.723c0.417-2.738-0.979-7.254-3.014-8.45c-2.115-1.242-7.184-0.571-8.905,1.229
		C1064.26,882.876,1060.565,888.883,1055.452,895.837z"/>
	<path fill="#E15830" d="M294.946,373.475c-3.945,3.281-7.898,6.554-11.834,9.845c-26.574,22.224-30.396,55.734-9.035,83.25
		c10.242,13.194,23.339,22.827,39.851,26.87c9.765,2.391,19.607,4.978,29.563,5.938c9.837,0.949,19.861-0.036,31.74-0.2
		c-12.267,14.058-22.979,27.685-22.711,46.001c0.254,17.43,5.898,33.542,14.833,48.644c-0.789,0.477-1.579,0.954-2.368,1.431
		c-8.835-9.944-18.322-19.388-26.39-29.92c-32.964-43.033-65.01-86.776-98.41-129.462c-14.423-18.432-30.806-35.431-47.213-52.185
		c-20.79-21.23-46.116-32.459-77.208-29.695c-1.737-3.673-3.301-7.01-4.89-10.335c-4.696-9.826-5.563-21.461-14.445-29.382
		c-1.872-1.669-2.247-5.157-3.029-7.888c-6.31-22.044-6.858-44.665-4.439-67.123c1.152-10.701,6.022-21.05,9.622-31.415
		c1.401-4.032,4.509-7.477,5.87-11.516c7.696-22.842,25.915-33.797,46.906-40.981c24.616-8.425,48.94-9.616,71.423,6.809
		c14.625,10.684,24.007,25.618,34.796,40.433c-11.134,4.21-21.485,6.928-30.638,11.867c-13.42,7.242-27.346,14.54-38.624,24.553
		c-22.486,19.964-35.336,46.094-26.925,75.96c7.841,27.844,31.228,42.477,58.242,50.681c15.949,4.844,32.266,3.375,48.568,2.939
		c8.502-0.227,17.034,0.714,25.553,1.127C294.151,370.972,294.549,372.223,294.946,373.475z"/>
	<path fill="#E15830" d="M385.511,611.8c3.586,1.561,5.687,2.265,7.582,3.334c26.708,15.068,54.598,15.288,83.476,7.509
		c18.416-4.96,37.134-8.802,56.927-13.428c-5.455,10.728-11.376,19.91-14.867,29.938c-3.413,9.8-6.093,20.498-5.889,30.738
		c0.212,10.644,4.265,21.211,6.505,31.22C493.287,695.552,408.007,641.642,385.511,611.8z"/>
	<path fill="#E15830" d="M892.974,673.504c-27.245,19.628-56.03,31.765-87.133,38.422c-7.281,1.559-16.17,3.657-20.901-4.349
		c-5.26-8.904,1.969-15.036,7.384-21.088c9.19-10.27,18.359-20.559,28.09-31.459C843.45,660.894,867.389,666.989,892.974,673.504z"
		/>
	<path fill="#E15830" d="M705.583,694.771c-2.981,12.457-6.592,22.493-7.491,32.766c-0.861,9.832,1.097,19.91,1.96,31.857
		c-39.86-5.679-77.511-17.782-115.14-31.302c2.271-0.05,4.543-0.108,6.815-0.148c2.878-0.051,5.756-0.15,8.633-0.119
		c28.979,0.306,56.011-6.438,80.992-21.475C688.577,702.001,696.616,699.003,705.583,694.771z"/>
	<path fill="#E15830" d="M649.444,587.578c12.296,5.425,24.765,10.925,40.507,17.871c-28.523,9.518-50.828,26.335-79.4,28.228
		C614.487,619.444,622.038,610.647,649.444,587.578z"/>
	<path fill="#E15830" d="M497.711,510.975c5.238,4.545,11.273,9.781,18.148,15.746c-20.988,5.77-41.339,15.791-64.161,15.368
		c-0.364-0.957-0.729-1.913-1.094-2.87C465.517,530.279,480.43,521.337,497.711,510.975z"/>
	<path fill="#E15830" d="M377.665,429.022c-10.479,1.671-17.779,2.835-27.741,4.424c4.211-8.247,7.498-14.684,11.679-22.872
		C367.137,416.93,371.337,421.754,377.665,429.022z"/>
	<path fill="#541C00" d="M338.395,673.176c-16.601-4.428-29.353-12.298-39.483-22.895c-26.502-27.722-54.774-54.17-75.706-86.574
		c-23.679-36.655-52.721-68.277-84.865-97.381c-3.073-2.782-5.725-6.03-11.05-11.699c6.514,0.471,9.789-0.036,12.373,1.069
		c3.909,1.672,7.635,4.11,10.923,6.842c29.581,24.585,57.118,50.877,80.391,81.994c25.247,33.757,53.181,65.521,80.379,97.786
		c5.492,6.515,12.923,11.399,19.486,17.005C335.261,663.096,335.281,663.073,338.395,673.176z"/>
	<path fill="#541C00" d="M782.33,966.637c-1.257-3.912-2.451-7.846-3.779-11.734c-11.883-34.768-30.367-64.985-61.086-86.296
		c-8.202-5.69-17.567-9.686-26.31-14.617c-13.743-7.751-27.432-15.6-41.08-23.519c-1.455-0.845-2.478-2.435-4.468-4.458
		c9.65-5.925,18.099-2.886,26.765-0.731c48.262,12,79.747,43.504,100.88,86.825c5.01,10.269,8.78,21.171,12.71,31.931
		C788.64,951.366,788.493,958.836,782.33,966.637z"/>
	<path fill="#541C00" d="M554.237,826.499c2.8,2.729,6.058,5.129,8.308,8.254c5.322,7.394,10.072,15.195,15.216,22.72
		c30.052,43.957,60.18,87.862,90.201,131.841c3.9,5.712,7.332,11.744,9.871,18.508c-8.878-0.88-13.93-6.612-18.358-12.518
		c-21.868-29.167-44.137-58.073-64.896-88.019c-13.907-20.062-25.651-41.637-38.084-62.699c-2.768-4.689-4.367-10.068-6.505-15.13
		C551.406,828.47,552.821,827.485,554.237,826.499z"/>
	<path fill="#541C00" d="M719.492,996.561c-4.327-3.392-9.649-6.041-12.825-10.293c-24.977-33.428-49.598-67.123-74.153-100.863
		c-2.496-3.429-4.446-7.551-5.456-11.646c-0.537-2.178,0.889-5.586,2.586-7.28c0.961-0.959,4.825-0.299,6.391,0.912
		c2.978,2.303,5.571,5.295,7.756,8.401c23.48,33.363,46.945,66.737,70.153,100.289c3.679,5.319,6.068,11.53,9.052,17.328
		C721.828,994.46,720.66,995.51,719.492,996.561z"/>
	<path fill="#541C00" d="M604.496,961.229c-15.174-2.904-19.929-6.526-38.546-33.496c-12.998-18.83-28.132-36.998-31.34-64.813
		c5.399,3.607,8.457,4.784,10.2,6.996c3.546,4.5,6.366,9.57,9.517,14.385c12.865,19.657,25.751,39.3,38.609,58.961
		C596.3,948.406,599.59,953.599,604.496,961.229z"/>
	<path fill="#541C00" d="M165.247,542.134c2.276,2.864,5.073,4.974,5.945,7.699c8.816,27.561,17.318,55.222,26.251,83.961
		c-9.762-4.389-10.047-4.839-18.486-27.405C162.984,563.674,160.432,552.415,165.247,542.134z"/>
	<path fill="#541C00" d="M192.797,552.512c6.734,9.359,29.531,85.013,29.973,98.414c-7.666-3.723-9.244-10.851-11.836-17.209
		C197.001,599.54,189.705,568.168,192.797,552.512z"/>
	<path fill="#541C00" d="M1077.224,750.958c3.284,1.989,8.072,3.198,9.58,6.107c5.409,10.435,9.838,21.392,14.311,32.286
		c0.834,2.033,0.933,5.07-0.006,6.959c-1.339,2.694-3.688,6.229-6.096,6.659c-2.275,0.406-5.338-2.538-7.737-4.415
		c-0.953-0.745-1.104-2.568-1.53-3.928c-3.551-11.335-7.149-22.657-10.557-34.035c-0.64-2.137-0.499-4.509-0.718-6.772
		C1075.388,752.866,1076.306,751.912,1077.224,750.958z"/>
	<path fill="#541C00" d="M1040.513,783.034c4.553-0.726,6.575-1.716,8.026-1.176c12.847,4.785,21.308,14.298,26.73,26.501
		c2.003,4.508,2.302,10.014-3.182,12.514c-5.603,2.555-8.615-1.659-11.309-5.999C1054.567,804.866,1048.143,794.99,1040.513,783.034
		z"/>
	<path fill="#541C00" d="M1015.923,839.853c15.79,2.661,31.912-2.565,48.686,1.052
		C1055.188,856.644,1042.328,855.624,1015.923,839.853z"/>
	<path fill="#541C00" d="M1055.452,895.837c5.113-6.955,8.807-12.961,13.573-17.943c1.721-1.8,6.79-2.471,8.905-1.229
		c2.035,1.196,3.43,5.712,3.014,8.45C1079.449,894.938,1069.349,899.847,1055.452,895.837z"/>
</g>
</svg>
